<?xml version="1.0" encoding="UTF-8"?>
<svg xmlns="http://www.w3.org/2000/svg" viewBox="0 0 11956 12455" width="40" height="42">
  <path fill="#0078BF" d="M10434.77 5938.87l63.29 0c0,-1238.36 -505.81,-2359.48 -1322.21,-3171.07 -817.07,-811.59 -1945.86,-1313.68 -3191.5,-1313.68 -1246.47,0 -2374.76,502.09 -3191.66,1313.68 -816.98,811.59 -1322.13,1932.7 -1322.13,3171.07 0,2476.61 2020.67,4484.61 4513.8,4484.61 2492.78,0 4513.72,-2008 4513.72,-4484.61l-31.49 0 -31.8 0z"/>
  <path fill="#DEEBF9" d="M5976.48 10320.59c-2364.61,0 -4270.26,-1852.6 -4337.7,-4217.31 -68.54,-2393.38 1822.14,-4395.98 4215.47,-4464.69 42.1,-1.41 84.52,-1.92 126.55,-1.92 2364.57,0 4270.17,1852.39 4337.28,4217.32 33.62,1159.04 -386.33,2261.97 -1182.81,3105.08 -796.02,843.58 -1873.12,1326.2 -3032.1,1359.68 -41.85,0.99 -84.76,1.84 -126.69,1.84z"/>
  <path fill="#CBDDF1" d="M5980.8 1744.76c-41.04,0 -82.47,0.99 -123.22,2.13 -2333.44,66.83 -4177.72,2019.45 -4110.93,4352.96 66.39,2306.03 1924.24,4112.17 4229.83,4112.17 41.05,0 82.62,-0.31 123.3,-1.65 1130.2,-32.79 2180.63,-503.16 2956.91,-1325.5 776.64,-822.38 1186.14,-1896.97 1153.66,-3027.46 -65.98,-2306.1 -1923.82,-4112.64 -4228.85,-4112.64z"/>
  <path fill="#414140" d="M6106.5 10426.48c-2457.23,70.26 -4505.6,-1863.86 -4575.55,-4319.91 -70.67,-2457.23 1863.67,-4505.41 4320.08,-4576.77 2456.73,-69.95 4505.33,1864.49 4575.63,4321.12 70.58,2456.17 -1864.03,4505.12 -4320.16,4575.56zm5847.67 -4619.36c-93.96,-3300.27 -2846.6,-5899.26 -6146.9,-5804.62 -3300.05,94.7 -5899.23,2846.85 -5804.77,6147.33 94.89,3300.81 2847.03,5898.97 6147.59,5804.69 3300.41,-94.95 5899.4,-2846.92 5804.09,-6147.4z"/>
  <text x="5976" y="6500" text-anchor="middle" fill="#FFFFFF" font-family="Arial" font-weight="bold" font-size="500">ФНС</text>
</svg>
